<svg xmlns="http://www.w3.org/2000/svg" version="1.1" xmlns:xlink="http://www.w3.org/1999/xlink" width="512" height="512" x="0" y="0" viewBox="0 0 512 512" style="enable-background:new 0 0 512 512" xml:space="preserve" class=""><g><path d="M256 512c-46.226 0-91.247-12.933-130.198-37.401a13.326 13.326 0 0 1-2.208-1.734c-23.612-15.005-43.958-33.424-60.545-54.809a13.91 13.91 0 0 1-4.734-6.237 67.814 67.814 0 0 1-1.208-1.652s-1.788-2.543-1.847-2.63a253.049 253.049 0 0 1-3.427-4.985 251.333 251.333 0 0 1-2.06-3.173 13.841 13.841 0 0 1-4.223-6.804C22.865 354.67 10.89 311.282 10.89 266.87c0-8.441.426-16.882 1.265-25.093.115-1.207.263-2.468.435-3.733C27.022 114.731 131.642 21.76 256 21.76c.74 0 1.479.005 2.221.013L316.213.793a13.267 13.267 0 0 1 8.983-.021l97.535 34.775a13.286 13.286 0 0 1 8.63 14.78 13.286 13.286 0 0 1-12.613 11.014v22.267c20.704 18.374 37.996 39.912 51.452 64.102a224.62 224.62 0 0 1 9.444 18.755l.06.128c.271.59.532 1.174.768 1.765 13.694 31.09 20.636 64.233 20.636 98.514 0 42.771-11.169 84.855-32.299 121.702a240.599 240.599 0 0 1-2.366 4.022 13.86 13.86 0 0 1-4.216 6.784c-.475.742-.953 1.481-1.436 2.217-.094.143-.191.283-.29.422a97.18 97.18 0 0 1-1.699 2.548l-.067.1a216.932 216.932 0 0 1-2.655 3.832 84.198 84.198 0 0 1-1.108 1.542l-.991 1.363a13.912 13.912 0 0 1-5.212 6.89 233.302 233.302 0 0 1-11.166 13.179l-1.547 1.719c-30.186 32.665-68.545 56.485-110.946 68.907a13.208 13.208 0 0 1-3.258.528c-3.28.932-6.649 1.81-10.074 2.632-.939.456-1.936.805-2.973 1.034a242.922 242.922 0 0 1-19.802 3.488A245.448 245.448 0 0 1 256 512z" style="" fill="#ffffff" data-original="#ffffff" class=""></path><path d="M426.758 241.959c-.357 60.945 2.721 52.378-42.972 97.253-30.218 29.677-34.045 34.365-75.39 43.726-92.452 20.931-193.812 88.861-246.674 10.627a289.104 289.104 0 0 1-3.92-6.112c-22.035-35.477-34.747-77.311-34.747-122.134 0-8.017.399-15.945 1.196-23.74.111-1.152.244-2.281.399-3.411 13.421-115.224 111.371-204.67 230.227-204.67 1.484 0 2.968.022 4.473.044 25.003.465 48.986 4.894 71.442 12.689.266.089.554.177.819.288.531.177 1.063.354 1.572.554a222.193 222.193 0 0 1 11.228 4.363 230.96 230.96 0 0 1 9.877 4.407c.044.022.066.022.089.044a218.686 218.686 0 0 1 14.993 7.84 213.782 213.782 0 0 1 12.557 7.685 216.448 216.448 0 0 1 15.059 10.763 188.976 188.976 0 0 1 7.352 5.957c21.371 18.027 39.442 39.884 53.128 64.488a210.533 210.533 0 0 1 8.925 17.717c.243.531.487 1.041.686 1.572 11.363 30.307-40.136 38.682-40.319 70.05z" style="" fill="#7b9aff" data-original="#7b9aff" class=""></path><path d="M83.469 148.855c10.054-8.482 22.899-14.838 35.3-11.272 7.906 2.281 14.749 8.438 22.965 8.615 7.995.199 14.838-5.226 21.592-9.523 18.713-11.914 41.988-16.476 63.802-12.49 17.672 3.233 34.26 12.025 46.993 24.67H83.469zM151.435 241.579H24.252c.111-1.152.244-2.281.399-3.411 5.691-1.594 10.851-5.514 15.989-8.77 18.713-11.914 41.988-16.477 63.802-12.49 17.672 3.234 34.259 12.026 46.993 24.671zM36.257 317.068c10.054-8.482 22.899-14.838 35.3-11.272 7.906 2.281 14.749 8.438 22.965 8.615 7.995.199 14.838-5.226 21.592-9.523 18.713-11.914 41.988-16.476 63.802-12.49 17.672 3.233 34.26 12.025 46.993 24.67H36.257z" style="" fill="#f7ede5" data-original="#f7ede5"></path><path d="m105.598 203.51 128.162-27.517v27.894z" style="" fill="#372945" data-original="#372945" class=""></path><path d="M105.598 203.51h136.455v189.228H105.598z" style="" fill="#ffc063" data-original="#ffc063" class=""></path><path d="M116.906 220.473h16.963v32.418h-16.963z" style="" fill="#f7ede5" data-original="#f7ede5"></path><path d="M118.037 222.634h13.994v28.095h-13.994z" style="" fill="#372945" data-original="#372945" class=""></path><path d="M156.486 220.049h16.963v32.418h-16.963z" style="" fill="#f7ede5" data-original="#f7ede5"></path><path d="M157.617 222.21h13.994v28.095h-13.994z" style="" fill="#372945" data-original="#372945" class=""></path><path d="M172.459 220.049h16.963v32.418h-16.963z" style="" fill="#f7ede5" data-original="#f7ede5"></path><path d="M173.59 222.21h13.994v28.095H173.59z" style="" fill="#372945" data-original="#372945" class=""></path><path d="M188.432 220.049h16.963v32.418h-16.963z" style="" fill="#f7ede5" data-original="#f7ede5"></path><path d="M189.563 222.21h13.994v28.095h-13.994z" style="" fill="#372945" data-original="#372945" class=""></path><path d="M116.906 279.56h16.963v32.418h-16.963z" style="" fill="#f7ede5" data-original="#f7ede5"></path><path d="M118.037 281.721h13.994v28.095h-13.994z" style="" fill="#372945" data-original="#372945" class=""></path><path d="M156.486 279.136h16.963v32.418h-16.963z" style="" fill="#f7ede5" data-original="#f7ede5"></path><path d="M157.617 281.297h13.994v28.095h-13.994z" style="" fill="#372945" data-original="#372945" class=""></path><path d="M172.459 279.136h16.963v32.418h-16.963z" style="" fill="#f7ede5" data-original="#f7ede5"></path><path d="M173.59 281.297h13.994v28.095H173.59z" style="" fill="#372945" data-original="#372945" class=""></path><path d="M188.432 279.136h16.963v32.418h-16.963z" style="" fill="#f7ede5" data-original="#f7ede5"></path><path d="M189.563 281.297h13.994v28.095h-13.994z" style="" fill="#372945" data-original="#372945" class=""></path><path d="M116.906 336.102h16.963v32.418h-16.963z" style="" fill="#f7ede5" data-original="#f7ede5"></path><path d="M118.037 338.263h13.994v28.095h-13.994z" style="" fill="#372945" data-original="#372945" class=""></path><path d="M156.486 335.678h16.963v32.418h-16.963z" style="" fill="#f7ede5" data-original="#f7ede5"></path><path d="M157.617 337.839h13.994v28.095h-13.994z" style="" fill="#372945" data-original="#372945" class=""></path><path d="M172.459 335.678h16.963v32.418h-16.963z" style="" fill="#f7ede5" data-original="#f7ede5"></path><path d="M173.59 337.839h13.994v28.095H173.59z" style="" fill="#372945" data-original="#372945" class=""></path><path d="M188.432 335.678h16.963v32.418h-16.963z" style="" fill="#f7ede5" data-original="#f7ede5"></path><path d="M189.563 337.839h13.994v28.095h-13.994z" style="" fill="#372945" data-original="#372945" class=""></path><path d="M232.244 46.231v303.064h122.134V46.231H232.244zm62.208 63.891h-18.669V49.62h18.669v60.502zm-34.215 0H241.59V49.62h18.647v60.502zm51.178 0V49.62h18.647v60.502h-18.647z" style="" fill="#ed6b5a" data-original="#ed6b5a" class=""></path><g style="opacity:0.19;"><path d="M232.244 47.073v81.984h122.134V47.073H232.244zm43.539 2.547h18.669v60.502h-18.669V49.62zm-34.193 60.502V49.62h18.647v60.502H241.59zm88.472 0h-18.647V49.62h18.647v60.502z" style="" fill="#f7ede5" data-original="#f7ede5"></path></g><path d="M265.424 155.061h-30.533a.554.554 0 0 1-.554-.554v-9.047c0-.306.248-.554.554-.554h30.533c.306 0 .554.248.554.554v9.047a.555.555 0 0 1-.554.554zm-29.98-1.108h29.426v-7.939h-29.426v7.939zM265.424 215.844h-30.533a.554.554 0 0 1-.554-.554v-9.047c0-.306.248-.554.554-.554h30.533c.306 0 .554.248.554.554v9.047a.555.555 0 0 1-.554.554zm-29.98-1.108h29.426v-7.939h-29.426v7.939zM290.538 129.946h-30.533a.554.554 0 0 1-.554-.554v-9.047c0-.306.248-.554.554-.554h30.533c.306 0 .554.248.554.554v9.047a.554.554 0 0 1-.554.554zm-29.979-1.107h29.426V120.9h-29.426v7.939zM348.776 151.716h-30.532a.554.554 0 0 1-.554-.554v-9.047c0-.306.248-.554.554-.554h30.532c.306 0 .554.248.554.554v9.047a.554.554 0 0 1-.554.554zm-29.978-1.108h29.425v-7.939h-29.425v7.939zM348.776 243.879h-30.532a.554.554 0 0 1-.554-.554v-9.046c0-.306.248-.554.554-.554h30.532c.306 0 .554.248.554.554v9.046a.554.554 0 0 1-.554.554zm-29.978-1.108h29.425v-7.939h-29.425v7.939zM317.396 195.536h-30.532a.554.554 0 0 1-.554-.554v-9.047c0-.306.248-.554.554-.554h30.532c.306 0 .554.248.554.554v9.047a.555.555 0 0 1-.554.554zm-29.979-1.107h29.425v-7.939h-29.425v7.939zM317.396 271.82h-30.532a.554.554 0 0 1-.554-.554v-9.047c0-.306.248-.554.554-.554h30.532c.306 0 .554.248.554.554v9.047a.555.555 0 0 1-.554.554zm-29.979-1.107h29.425v-7.939h-29.425v7.939z" style="" fill="#372945" data-original="#372945" class=""></path><path d="M232.244 280.024h119.321v113.652H232.244z" style="" fill="#f7ede5" data-original="#f7ede5"></path><path d="M293.034 378.129c0 5.271.664 10.519 1.594 15.546h-43.051a70.486 70.486 0 0 1-.952-11.582c0-27.793 15.701-50.315 35.057-50.315a24.216 24.216 0 0 1 6.976 1.019c.354.089.664.199.974.31 13.221 4.916-.598 21.238-.598 45.022z" style="" fill="#ed6b5a" data-original="#ed6b5a" class=""></path><path d="M320.739 382.094c0 3.986-.332 7.862-.93 11.582h-56.383a73.005 73.005 0 0 1-.93-11.582c0-24.892 12.579-45.554 29.122-49.584.354.089.686.177 1.041.288.354.089.664.199.974.31 15.546 5.137 27.106 25.112 27.106 48.986zM275.696 125.671h26.575v55.411h-26.575z" style="" fill="#372945" data-original="#372945" class=""></path><path d="M277.392 127.932h23.182v50.323h-23.182z" style="" fill="#ffc063" data-original="#ffc063" class=""></path><path d="M287.852 125.859h1.885v53.715h-1.885z" style="" fill="#372945" data-original="#372945" class=""></path><path d="M276.544 152.387h25.303v1.696h-25.303zM275.696 199.458h26.575v55.411h-26.575z" style="" fill="#372945" data-original="#372945" class=""></path><path d="M277.392 201.72h23.182v50.323h-23.182z" style="" fill="#ffc063" data-original="#ffc063" class=""></path><path d="M287.852 199.647h1.885v53.715h-1.885z" style="" fill="#372945" data-original="#372945" class=""></path><path d="M276.544 226.174h25.303v1.696h-25.303zM344.413 46.32v347.179h59.926V46.32h-59.926zm9.876 2.547h15.081v60.502h-15.081V48.867zm42.698 60.502h-15.059V48.867h15.059v60.502z" style="" fill="#372945" data-original="#372945" class=""></path><path d="M223.488 46.511h193.658L319.61 11.738z" style="" fill="#372945" data-original="#372945" class=""></path><path d="M486.699 265.319c0 41.9-11.095 81.186-30.539 115.091a251.862 251.862 0 0 1-3.964 6.644c-.089.133-.155.266-.244.399a269.124 269.124 0 0 1-3.388 5.293h-87.387v-222.41h105.214c.244.532.487 1.041.686 1.572 12.624 28.568 19.622 60.17 19.622 93.411z" style="" fill="#f7ede5" data-original="#f7ede5"></path><g style="opacity:0.46;"><path d="M456.16 170.336V380.41a251.862 251.862 0 0 1-3.964 6.644c-.089.133-.155.266-.244.399a269.124 269.124 0 0 1-3.388 5.293h-87.387v-222.41h94.983z" style="" fill="#ffc063" data-original="#ffc063" class=""></path></g><path d="M360.792 169.962h91.222v10.932h-91.222z" style="" fill="#f7ede5" data-original="#f7ede5"></path><path d="M486.699 265.319c0 41.9-11.095 81.186-30.539 115.091a251.862 251.862 0 0 1-3.964 6.644V170.336h14.195c.244.532.487 1.041.686 1.572 12.624 28.568 19.622 60.17 19.622 93.411z" style="" fill="#372945" data-original="#372945" class=""></path><g style="opacity:0.46;"><path d="M486.699 265.319c0 41.9-11.095 81.186-30.539 115.091a251.862 251.862 0 0 1-3.964 6.644V170.336h14.195c.244.532.487 1.041.686 1.572 12.624 28.568 19.622 60.17 19.622 93.411z" style="" fill="#372945" data-original="#372945" class=""></path></g><path d="M467.078 171.908c-3.521-.044-7.175-.066-10.918-.111-1.307 0-2.635 0-3.964-.022h-.177c-15.613-.133-32.51-.266-47.68-.421-19.156-.177-35.566-.354-43.162-.509h-.377c-2.635-.044-4.119-.089-4.163-.133l38.467-18.093h62.362a210.533 210.533 0 0 1 8.925 17.717c.244.532.488 1.041.687 1.572z" style="" fill="#372945" data-original="#372945" class=""></path><g style="opacity:0.3;"><path d="M467.078 171.908c-3.521-.044-7.175-.066-10.918-.111-1.307 0-2.635 0-3.964-.022h-.177c-15.613-.133-32.51-.266-47.68-.421-19.156-.177-35.566-.354-43.162-.509h-.377c-2.635-.044-4.119-.089-4.163-.133l38.467-18.093h62.362a210.533 210.533 0 0 1 8.925 17.717c.244.532.488 1.041.687 1.572z" style="" fill="#ed6b5a" data-original="#ed6b5a" class=""></path></g><path d="M368.331 187.302h24.879v37.695h-24.879z" style="" fill="#f7ede5" data-original="#f7ede5"></path><path d="M370.757 190.977h20.027v30.344h-20.027z" style="" fill="#372945" data-original="#372945" class=""></path><path d="M414.13 187.302h24.879v37.695H414.13z" style="" fill="#f7ede5" data-original="#f7ede5"></path><path d="M416.556 190.977h20.027v30.344h-20.027z" style="" fill="#372945" data-original="#372945" class=""></path><path d="M368.331 244.692h24.879v37.695h-24.879z" style="" fill="#f7ede5" data-original="#f7ede5"></path><path d="M370.757 248.367h20.027v30.344h-20.027z" style="" fill="#372945" data-original="#372945" class=""></path><path d="M414.13 244.692h24.879v37.695H414.13z" style="" fill="#f7ede5" data-original="#f7ede5"></path><path d="M416.556 248.367h20.027v30.344h-20.027z" style="" fill="#372945" data-original="#372945" class=""></path><path d="M368.331 313.768h24.879v37.695h-24.879z" style="" fill="#f7ede5" data-original="#f7ede5"></path><path d="M370.757 317.443h20.027v30.344h-20.027z" style="" fill="#372945" data-original="#372945" class=""></path><path d="M414.13 313.768h24.879v37.695H414.13z" style="" fill="#f7ede5" data-original="#f7ede5"></path><path d="M416.556 317.443h20.027v30.344h-20.027z" style="" fill="#372945" data-original="#372945" class=""></path><path d="M451.952 387.453a196.082 196.082 0 0 1-3.41 5.293 77.596 77.596 0 0 1-1.86 2.812c-.022.044-.066.089-.089.133a204.62 204.62 0 0 1-2.503 3.61c-.509.731-1.041 1.44-1.55 2.148a216.722 216.722 0 0 1-17.48 21.294c-11.607 12.447-32.455 9.398-46.551 18.999-20.102 13.692-34.54 38.473-57.819 45.506a233.425 233.425 0 0 1-34.954 7.712c-10.292 1.449-18.629-12.407-26.72-18.917-.94-.756-42.238-7.155-42.972-7.162-41.837-.384-47.345 15.282-83.301-6.792-25.799-15.838-48.517-36.556-65.907-61.142-.57-.806-1.137-1.613-1.703-2.422-.022-.022-.044-.044-.044-.066a237.381 237.381 0 0 1-3.366-4.894 289.104 289.104 0 0 1-3.92-6.112h394.149z" style="" fill="#ed6b5a" data-original="#ed6b5a" class=""></path><path d="M131.324 421.092h-30.532a.554.554 0 0 1-.554-.554v-9.046c0-.306.248-.554.554-.554h30.532c.306 0 .554.248.554.554v9.046a.554.554 0 0 1-.554.554zm-29.978-1.108h29.425v-7.939h-29.425v7.939zM306.04 421.092h-30.533a.554.554 0 0 1-.554-.554v-9.046c0-.306.248-.554.554-.554h30.533c.306 0 .554.248.554.554v9.046a.554.554 0 0 1-.554.554zm-29.98-1.108h29.426v-7.939H276.06v7.939zM345.478 460.53h-30.533a.554.554 0 0 1-.554-.554v-9.047c0-.306.248-.554.554-.554h30.533c.306 0 .554.248.554.554v9.047a.554.554 0 0 1-.554.554zm-29.979-1.107h29.426v-7.94h-29.426v7.94zM366.823 434.945H336.29a.554.554 0 0 1-.554-.554v-9.047c0-.306.248-.554.554-.554h30.533c.306 0 .554.248.554.554v9.047a.554.554 0 0 1-.554.554zm-29.979-1.107h29.426v-7.939h-29.426v7.939zM159.03 444.84h-30.533a.554.554 0 0 1-.554-.554v-9.047c0-.306.248-.554.554-.554h30.533c.306 0 .554.248.554.554v9.047a.554.554 0 0 1-.554.554zm-29.979-1.108h29.426v-7.939h-29.426v7.939z" style="" fill="#372945" data-original="#372945" class=""></path><path d="M304.838 491.759a227.964 227.964 0 0 1-18.713 3.3 231.206 231.206 0 0 1-31.248 2.104c-45.244 0-87.454-12.955-123.13-35.367 15.059-24.36 40.903-41.39 70.866-44.447h.022a98.908 98.908 0 0 1 9.656-.487c45.487 0 83.489 32.112 92.547 74.897z" style="" fill="#372945" data-original="#372945" class=""></path><g style="opacity:0.44;"><path d="M304.838 491.759a227.964 227.964 0 0 1-18.713 3.3 231.206 231.206 0 0 1-31.248 2.104c-45.244 0-87.454-12.955-123.13-35.367 15.059-24.36 40.903-41.39 70.866-44.447h.022a98.908 98.908 0 0 1 9.656-.487c45.487 0 83.489 32.112 92.547 74.897z" style="" fill="#ed6b5a" data-original="#ed6b5a" class=""></path></g><path d="M286.125 495.059a231.206 231.206 0 0 1-31.248 2.104c-45.244 0-87.454-12.955-123.13-35.367 15.059-24.36 40.903-41.39 70.866-44.447h.022c42.232 4.297 76.27 36.408 83.49 77.71zM428.965 418.413c-1.24 1.44-2.525 2.835-3.809 4.23-28.059 30.362-64.156 53.216-104.904 65.153 9.744-37.758 42.21-66.415 81.939-70.445h.022c3.189-.31 6.4-.487 9.656-.487a94.207 94.207 0 0 1 17.096 1.549z" style="" fill="#372945" data-original="#372945" class=""></path><g style="opacity:0.44;"><path d="M428.965 418.413c-1.24 1.44-2.525 2.835-3.809 4.23-28.059 30.362-64.156 53.216-104.904 65.153 9.744-37.758 42.21-66.415 81.939-70.445h.022c3.189-.31 6.4-.487 9.656-.487a94.207 94.207 0 0 1 17.096 1.549z" style="" fill="#ed6b5a" data-original="#ed6b5a" class=""></path></g><path d="M425.156 422.642c-28.059 30.362-64.156 53.216-104.904 65.153 9.744-37.758 42.21-66.415 81.939-70.445h.022c7.972.819 15.679 2.613 22.943 5.292zM439.763 405.923H70.138a.554.554 0 1 1 0-1.108h369.625a.554.554 0 1 1 0 1.108z" style="" fill="#372945" data-original="#372945" class=""></path><path d="M451.952 388.007H57.803a.554.554 0 1 1 0-1.108h394.149a.554.554 0 1 1 0 1.108z" style="" fill="#f7ede5" data-original="#f7ede5"></path><path d="M437.44 386.668c-3.821-11.643-14.757-20.618-26.921-22.094-12.164-1.477-24.93 4.621-31.425 15.012-4.944-3.591-11.436-4.969-17.412-3.695-5.977 1.274-11.342 5.179-14.393 10.474.126 0-.946.342-.821.342l90.972-.039zM170.937 386.668c-3.821-11.643-14.757-20.618-26.921-22.094-12.165-1.477-24.93 4.621-31.425 15.012-4.944-3.591-11.436-4.969-17.413-3.695-5.976 1.274-11.342 5.179-14.393 10.474.126 0-.946.342-.821.342l90.973-.039z" style="" fill="#baac54" data-original="#baac54"></path></g></svg>